<?xml version="1.0" encoding="UTF-8"?>
<!DOCTYPE svg PUBLIC "-//W3C//DTD SVG 1.1//EN" "http://www.w3.org/Graphics/SVG/1.1/DTD/svg11.dtd">
<!-- Creator: CorelDRAW X7 -->
<svg xmlns="http://www.w3.org/2000/svg" xml:space="preserve" width="61.3935mm" height="24.4856mm" version="1.1" style="shape-rendering:geometricPrecision; text-rendering:geometricPrecision; image-rendering:optimizeQuality; fill-rule:evenodd; clip-rule:evenodd"
viewBox="0 0 6139 2449"
 xmlns:xlink="http://www.w3.org/1999/xlink">
 <defs>
  <style type="text/css">
   <![CDATA[
    .fil1 {fill:#21608D}
    .fil0 {fill:#21608D;fill-rule:nonzero}
   ]]>
  </style>
 </defs>
 <g id="Layer_x0020_1">
  <metadata id="CorelCorpID_0Corel-Layer"/>
  <g id="_1416589946000">
   <g>
    <g>
     <path class="fil0" d="M3768 980l-216 -304 183 0 109 159 110 -159 182 0 -215 304 0 281 -153 0 0 -281zm737 -175l-181 0 0 98 171 0 0 128 -171 0 0 101 181 0 0 129 -334 0 0 -585 334 0 0 129zm452 355l-209 0 -41 101 -161 0 225 -585 166 0 221 585 -163 0 -38 -101zm-41 -117l-62 -186 -1 0 -63 186 126 0zm592 -22l184 240 -189 0 -144 -225 -2 0 0 225 -152 0 0 -585 228 0c58,0 106,15 145,44 39,28 58,74 58,137 0,40 -11,76 -33,107 -22,32 -54,51 -95,58l0 -1zm-151 -229l0 146 15 0c3,1 5,1 8,1 2,0 5,0 7,0 23,-1 43,-6 62,-16 19,-9 29,-28 29,-57 0,-29 -10,-48 -29,-58 -19,-9 -39,-15 -62,-16 -2,0 -5,0 -7,0 -3,0 -5,0 -8,0l-15 0zm758 -84l-60 118c-14,-11 -30,-20 -47,-27 -18,-7 -36,-11 -54,-11 -3,0 -6,1 -9,1 -3,0 -6,1 -9,2 -12,2 -23,8 -33,15 -10,8 -14,18 -14,31 0,13 4,23 13,30 10,8 20,14 31,18 4,2 8,3 12,5 4,1 7,2 11,3l39 11c41,13 75,31 103,54 28,24 41,59 41,107 0,2 0,4 0,6 0,2 0,4 0,6 -1,27 -6,54 -14,79 -9,26 -24,48 -46,67 -20,17 -42,29 -67,38 -25,8 -50,13 -76,15 -4,0 -8,0 -12,1 -4,0 -8,0 -11,0 -37,0 -73,-6 -108,-18 -36,-11 -68,-27 -98,-48l65 -124c19,18 40,32 63,44 22,12 46,18 72,18 1,0 2,0 3,0 1,0 2,0 3,0 17,-1 33,-7 47,-16 14,-10 21,-24 21,-43 0,-15 -6,-26 -18,-35 -11,-9 -24,-16 -39,-21 -6,-2 -12,-4 -18,-6 -7,-2 -12,-3 -17,-5 -2,-1 -3,-1 -4,-1 -1,0 -2,-1 -3,-1 -47,-13 -83,-30 -111,-50 -27,-20 -41,-58 -41,-113 0,-60 19,-108 57,-143 38,-36 87,-54 145,-54 12,0 24,1 36,2 13,1 25,3 38,7 19,4 39,9 58,16 19,7 36,14 51,23l0 -1z"/>
     <path class="fil0" d="M3774 1361c57,1 108,20 153,58 45,39 68,88 68,149 0,64 -21,117 -63,158 -41,41 -94,62 -158,62 -64,0 -117,-21 -159,-62 -42,-41 -63,-94 -63,-158 0,-61 23,-110 68,-149 45,-38 96,-57 154,-57l0 -1zm0 101c-32,0 -58,11 -80,33 -22,21 -33,45 -33,73 0,34 11,63 33,85 22,23 48,34 80,34 31,0 57,-11 79,-34 22,-22 34,-51 34,-85 0,-28 -12,-52 -34,-74 -22,-21 -48,-32 -79,-32zm498 1l-125 0 0 66 114 0 0 88 -114 0 0 157 -104 0 0 -399 229 0 0 88zm399 0l0 311 -104 0 0 -311 -86 0 0 -88 276 0 0 88 -86 0zm330 147l126 164 -129 0 -98 -153 -1 0 0 153 -104 0 0 -399 155 0c40,0 73,10 99,29 27,20 40,51 40,94 0,28 -8,52 -23,73 -15,22 -36,35 -65,40l0 -1zm-102 -156l0 100 10 0c1,0 3,0 5,0 2,0 3,0 5,0 15,0 30,-4 42,-11 13,-6 20,-19 20,-39 0,-19 -7,-32 -20,-39 -12,-7 -27,-10 -42,-11 -2,0 -3,0 -5,0 -2,0 -4,0 -5,0l-10 0zm499 -79l104 0 0 224c0,26 -2,52 -6,76 -4,25 -16,46 -36,66 -13,13 -28,22 -45,29 -18,6 -36,11 -54,13 -6,0 -11,1 -17,1 -6,1 -11,1 -16,1 -6,0 -11,0 -17,-1 -6,0 -11,-1 -17,-1 -18,-2 -36,-7 -54,-13 -17,-7 -32,-16 -45,-29 -20,-20 -32,-41 -36,-66 -4,-24 -6,-49 -6,-75l0 -225 104 0 0 210c0,2 0,5 0,7 0,2 0,4 0,6 0,24 5,46 12,66 8,20 28,30 59,30 30,0 50,-10 58,-30 8,-20 12,-42 12,-66 0,-2 0,-4 0,-6 0,-2 0,-4 0,-6l0 -211zm431 22l-42 80c-9,-7 -20,-14 -32,-18 -12,-5 -24,-8 -37,-8 -2,0 -3,0 -6,1 -2,0 -4,0 -6,1 -8,2 -15,5 -22,11 -7,5 -10,12 -10,21 0,8 3,15 9,20 7,5 14,10 21,13 3,1 5,2 8,3 3,0 5,1 8,2l26 7c28,9 52,21 71,37 19,16 28,41 28,73 0,2 0,3 0,4 0,2 0,3 0,5 -1,18 -4,36 -10,53 -6,18 -17,33 -31,46 -14,11 -29,20 -46,26 -17,5 -34,9 -52,10 -3,0 -6,0 -8,1 -3,0 -5,0 -8,0 -25,0 -50,-4 -74,-12 -24,-8 -46,-19 -66,-33l44 -84c13,11 27,21 43,29 15,8 32,12 49,12 1,0 2,0 3,0 0,0 1,0 2,0 11,0 22,-4 31,-10 10,-7 15,-17 15,-30 0,-10 -4,-18 -12,-24 -8,-6 -17,-11 -27,-14 -4,-1 -8,-3 -13,-4 -4,-1 -8,-2 -11,-3 -1,-1 -2,-1 -3,-1 -1,0 -1,-1 -2,-1 -32,-9 -57,-20 -75,-34 -19,-14 -28,-40 -28,-77 0,-41 13,-74 39,-98 26,-24 58,-37 98,-37 9,0 17,1 25,2 9,1 17,2 26,4 13,3 26,7 39,11 13,5 25,10 36,16l0 0zm224 66l0 311 -104 0 0 -311 -85 0 0 -88 275 0 0 88 -86 0z"/>
    </g>
    <g>
     <g>
      <polygon class="fil1" points="4846,0 4908,125 5047,146 4946,243 4970,381 4846,316 4722,381 4746,243 4645,146 4784,125 "/>
      <polygon class="fil1" points="4373,157 4408,226 4484,237 4428,291 4442,367 4373,331 4305,367 4318,291 4263,237 4339,226 "/>
      <polygon class="fil1" points="5318,157 5284,226 5208,237 5263,291 5250,367 5318,331 5387,367 5374,291 5429,237 5353,226 "/>
     </g>
     <g>
      <polygon class="fil1" points="4846,2449 4908,2323 5047,2303 4946,2205 4970,2067 4846,2132 4722,2067 4746,2205 4645,2303 4784,2323 "/>
      <polygon class="fil1" points="4373,2291 4408,2222 4484,2211 4428,2157 4442,2082 4373,2118 4305,2082 4318,2157 4263,2211 4339,2222 "/>
      <polygon class="fil1" points="5318,2291 5284,2222 5208,2211 5263,2157 5250,2082 5318,2118 5387,2082 5374,2157 5429,2211 5353,2222 "/>
     </g>
    </g>
   </g>
   <path class="fil0" d="M0 2320l1334 0 0 -447 -350 0 0 -1722 -333 0c-201,224 -390,316 -648,353l0 373c120,-14 244,-31 361,-63l0 1059 -364 0 0 447zm2425 0l602 0 0 -465 359 0 0 -413 -359 0 0 -1291 -550 0 -1019 1291 0 413 967 0 0 465zm-6 -1583l6 0 0 705 -519 0 513 -705z"/>
  </g>
 </g>
</svg>
